<?xml version="1.0" encoding="utf-8"?>
<!-- Generator: Adobe Illustrator 25.4.1, SVG Export Plug-In . SVG Version: 6.00 Build 0)  -->
<svg version="1.1" id="Calque_1" xmlns="http://www.w3.org/2000/svg" xmlns:xlink="http://www.w3.org/1999/xlink" x="0px" y="0px"
	 viewBox="0 0 1000 1000" style="enable-background:new 0 0 1000 1000;" xml:space="preserve">
<style type="text/css">
	.st0{fill:#FFFFFF;}
</style>
<g>
	<path class="st0" d="M291.15,232.07c10.71,0.26,22.11,0.56,33.91,2.03c10.39,1.29,20.81-3.27,26.14-12.28
		c9.78-16.53,23.42-35.43,40.28-48.5c24.04-18.65,57.18-22.26,82.09-21.73c2.42,0.05,4.57-1.42,5.15-3.77
		c1.59-6.39,2.48-13.79,3.12-22.15c-106.44,5.06-201.15,54.28-266.14,130.09c4.64-1.99,10.34-4.62,14.87-6.73
		C247.4,241.23,268.51,231.34,291.15,232.07z"/>
	<path class="st0" d="M588.59,775.2c-29.28,19.47-70.03,45.03-104.61,61.13c-14.69,6.84-29.6,14.71-44.01,22.68
		c-4.31,2.38-3.17,9.03,1.69,9.79c17.72,2.8,35.84,4.39,54.3,4.58c3.51,0,12.27-5.6,14.7-11.62c3.48-13.68,11.24-26.97,25.2-39.01
		c9.54-8.23,23.95-7.15,32.15,2.37c8.23,9.53,7.17,23.93-2.37,32.15c-3.97,3.42-6.72,7.21-8.59,11.31c14.51-2.23,28.77-5.17,42.69-9
		c2.04-0.56,3.44-2.34,3.71-4.43c2.27-17.95,11.24-34.31,18.62-47.75c3.53-6.43,9.25-9.64,8.69-16.09
		c-0.18-2.48-1.45-4.92-6.36-10.74C615.5,769.99,600.11,767.54,588.59,775.2z"/>
	<path class="st0" d="M713.82,270.29c-10.78-0.72-24.19-1.59-32.63,0.57c-4.66,1.19-4.68,1.55-4.9,5
		c1.56,7.71,32.34,21.2,43.93,26.28c18.44,8.09,34.36,15.07,43.42,25.93c12.75,15.31,16.74,48.23,17.73,76.21
		c1.06-0.33,2.08-0.67,3.15-1c5.09-1.58,10.29-3.2,14.47-4.72c0.67-3.63,1.22-9.07,1.63-13.05c1.87-18.25,4.2-40.96,19.58-57.56
		c2.64-2.86,5.69-5.08,8.7-7.33c-10.85-19.96-23.49-38.8-37.66-56.36c-1.25-1.54-3.29-2.25-5.23-1.83
		c-22.61,4.8-44.53,8.89-59.82,8.55C722.42,270.86,718.23,270.59,713.82,270.29z"/>
	<path class="st0" d="M364.1,752.52c9.34,2.89,11.93,3.43,15.92,2.2c2.92-1.13,10.52-8.04,16.06-13.09
		c8.7-7.91,19.67-17.81,33.06-25.91c1.14-0.69,2.01-1.77,2.34-3.07c4.26-16.98,5.73-38.76-2.86-46.85
		c-37.01-34.83-31.45-73.03-22.48-102.41c7.02-22.96,5.38-54.63,0.51-67.13c-0.43-1.09-1.19-1.83-2.2-2.42
		c-13.78-8.01-28.44-20.56-49.66-40.76c-9.12-8.68-9.47-23.12-0.79-32.23c8.68-9.14,23.13-9.47,32.23-0.79
		c43.87,41.78,46.31,41.78,85.56,41.05c7.08-0.11,13.33,3.49,18.92,0.91c14.02-11.12,22.95-59.56,62.4-82.43
		c11.02-6.39,22.25-10.31,33.32-12.49c2.77-0.55,4.61-3.03,4.14-5.82c-2.73-16.06-6.36-37.42-8.16-48.23
		c-1.21-7.28-21.81-15.52-41.8-22.63c-10.93-3.88-21.45,0.43-28.79,5.11c-0.73,0.46-1.49,0.96-1.75,1.78
		c-1.6,5.04,4.26,22.82,4.87,30.93c0.42,5.5,0.74,10.46,1.42,14.3c5.68,31.81-28.12,50.1-50.49,62.2
		c-3.91,2.11-9.26,5.01-10.77,6.16c-19.72,18.82-61.89,9.73-93.45-20.82c-12.48-12.07-25.82-10.81-46.3-7.34l-6.55,1.08
		c-0.69,0.11-1.53,0.33-2.51,0.65c-14.77,4.95-19.1,24-8.73,35.63c15.23,17.09,36.53,43.4,66.52,84.3
		c8.08,11.02,8.8,25.81,1.82,37.66c-2.62,4.44-7.21,12.96-14.27,28.22c-6.67,14.46-9.83,58.85-10.47,95.63
		c-0.04,2.6,1.89,4.81,4.46,5.21c10.84,1.71,20.4,2.39,26.55,0.92c12.23-2.91,24.54,4.59,27.5,16.83
		c2.95,12.24-4.59,24.55-16.83,27.5c-23.94,5.75-56.57-1.93-88.13-9.39c-11.75-2.77-27.69-6.54-38.68-8
		c-2.51-0.34-4.72,1.32-5.47,3.74c-4.19,13.45-12.99,26.56-29.71,35.48c-3.04,1.63-4.05,5.59-1.76,8.18
		c10.36,11.74,21.46,22.8,33.2,33.17c2.31,2.04,5.83,1.57,7.7-0.88c9.95-13.02,23.8-24.36,43.11-29.01
		C332.25,742.66,350.67,748.36,364.1,752.52z"/>
	<path class="st0" d="M221.54,660.13c15.57-11.1,37.98-7.92,67.85-1.18c3.2,0.72,6.33-1.51,6.42-4.8
		c0.92-33.61,4.11-80.57,14.46-102.97c4.09-8.85,7.84-16.53,11.23-22.96c0.93-1.77,0.67-3.86-0.52-5.47
		c-40.65-54.8-70.22-88.36-79.41-94.1c-0.35-0.22-0.63-0.35-1.01-0.52c-8.27-3.68-18.97-4.63-28.42-5.47
		c-13.15-1.18-25.61-2.29-34.8-11.23c-4.58-2.95-16.97-8.5-31.42-14.3c-2.88-1.16-6.2,0.45-7.03,3.44
		c-1.93,6.94-3.73,13.95-5.25,21.05c-0.5,2.35,0.61,4.7,2.77,5.75c26.23,12.84,56.9,32.21,82.09,60.89
		c32.48,36.97,45.95,63.56,43.69,86.23c-2.07,20.71-16.61,31.79-21.39,35.42c-13.38,10.2-28.36,11.59-41.57,12.83
		c-10.29,0.96-20.02,1.86-29.8,6.62c-5.66,2.75-11.28,5.86-16.83,9.07c9.05,22.54,20.21,43.96,33.28,64.08
		c20.36-3.48,21.65-12.6,22.31-19.15C209.14,673.82,213.89,665.57,221.54,660.13z"/>
	<path class="st0" d="M213.15,573.65c3.13-2.39,3.61-3.47,3.62-3.48c0.03-0.11,2.53-11.89-32.54-51.81
		c-17.23-19.62-38.17-34.16-57.46-44.69c-0.57,8.44-1.28,16.84-1.28,25.42c0,32.94,4.68,64.71,12.67,95.13
		c5.57-3.03,9.67-5.07,11.33-5.88c17.23-8.36,32.9-9.82,45.49-11C203.11,576.59,210.15,575.93,213.15,573.65z"/>
	<path class="st0" d="M216.17,377.24c3.5,0.31,7.44,0.72,11.57,1.23c15.04-10.89,52.02-36.32,74.14-39.71l5.83-0.96
		c20.82-3.54,55.66-9.48,85.66,19.52c3.97,3.84,7.93,6.9,11.7,9.32c10.26,6.58,23.31,6.67,33.99,0.78c1.61-0.89,3.31-1.81,5.12-2.78
		c6.82-3.7,22.06-11.94,26.79-17.35c1.99-4.48,0.33-9.8-1.5-15.59c-4.77-15.03-3.2-42.06-13.55-44.21
		c-12.32-2.56-20.24-14.63-17.68-26.95c2.56-12.33,14.64-20.3,26.95-17.68c5.18,1.08,9.77,2.75,13.86,4.88
		c7.71,4.02,16.98,3.86,25.1,0.77c15.01-5.71,32.83-7.77,51.73-1.05c4.07,1.45,8.39,5.62,12.52,4.56c4.17-1.56,4.34-7.41,3.77-12.24
		c-2.29-19.54,2.05-65.42,8.81-100.73c0.54-2.81-1.26-5.46-4.05-6.04c-14.39-3-29.09-5.12-44.04-6.41c-2.2,1.91-3.5,3.04-5.71,4.95
		c-0.94,11.36-2.36,21.33-4.23,29.68c-4.88,21.75-24.71,36.86-47.11,36.05c-24.79-1.01-45.26,3.42-56.43,12.08
		c-7.47,5.79-14.41,13.9-20.48,22.52c-8.21,11.65-7.44,27.88,2.91,37.67c5.71,5.4,11.36,11.6,16.93,18.74
		c7.74,9.93,5.97,24.25-3.96,32c-4.16,3.24-9.1,4.82-14,4.82c-6.79,0-13.5-3.01-18-8.78c-28.95-37.12-56.96-37.81-92.42-38.67
		c-13.21-0.42-26.81,6.33-40.61,12.74c-18.98,8.8-40.4,18.76-60.6,9.56c-2.75,0.71-4.42,1.15-7.17,1.86
		c-9.02,14.43-17.2,29.43-24.21,45.09c-1.23,2.74,0.16,5.99,2.95,7.09c19.19,7.62,36.68,15.79,45.24,22.11
		C208.38,376.55,212.79,376.94,216.17,377.24z"/>
	<path class="st0" d="M854.71,509.58c-7.34,1.41-20.02,3.84-25.99,6.53c2.15,5.14,9.7,17.98,36.19,42.72
		c1.23,1.15,2.27,2.46,3.45,3.66c3.18-18.61,5.12-37.63,5.45-57.08C867.72,507.01,861.33,508.31,854.71,509.58z"/>
	<path class="st0" d="M783.83,502.35c7.83-27.12,38.02-32.89,62.3-37.54c7.86-1.51,19.75-3.78,22.99-5.86
		c0.83-0.57,1.73-0.84,2.57-1.35c-3.48-31.52-11.12-61.72-21.93-90.39c-1.98,6.69-3,15.34-3.78,22.96
		c-1.86,18.18-3.97,38.8-22.58,47.61c-7.28,3.46-16.07,6.18-25.38,9.06c-7.61,2.36-20.08,6.22-24.32,8.91
		c-0.49,0.31-0.74,0.54-1.12,0.98c-4.46,5.18-16.62,25.23-28.77,46.66c0.64,2.7,1,4.19,1.64,6.89
		c24.26,16.9,45.75,53.93,63.9,110.12c16.09,49.79-21.22,90.53-41.81,108.45c-1.21,1.05-1.77,2.5-1.67,4.1l1.62,27.54
		c37.92-38.83,67.28-85.9,85.53-138.24c0.5-1.44,0.4-3.04-0.32-4.38c-5.03-9.4-11.31-18.62-18.89-25.7
		C791.9,553.02,776.96,526.17,783.83,502.35z"/>
	<path class="st0" d="M765.96,634.4c-21.34-66.05-41.46-83.37-47.12-87.1c-3.45-2.28-7.7-5.34-12.63-8.91
		c-22.39-16.2-59.87-43.32-93.55-43.32c-12.59,0-22.8-10.2-22.8-22.8c0-12.59,10.2-22.8,22.8-22.8c31.79,0,61.94,14.02,86.59,29.14
		c2.51,1.54,5.73,0.69,7.19-1.87c10.01-17.58,20.29-34.41,28.55-45.37c0.66-0.88,0.98-1.86,0.99-2.95
		c0.46-30.42-2.55-61.6-6.99-70.43c-0.37-0.75-0.77-1.22-1.45-1.71c-4.19-2.99-16.94-8.58-25.61-12.38
		c-31.08-13.62-73.65-32.29-71.13-71.01c1.53-23.38,15.77-40.21,39.07-46.2c15.52-3.96,32.94-2.82,46.96-1.9
		c3.83,0.25,7.46,0.5,10.74,0.6c5.64,0.14,14.3-0.99,24.05-2.68c-34.64-31.58-75.14-56.67-119.8-73.53c-3.08-1.16-6.54,0.7-7.1,3.95
		c-4.9,28.57-9.01,66.56-7.28,81.32c1.27,10.83-2.36,19.9-5.5,28.46c-2.11,5.74-1.14,12.27,2.93,16.83
		c6.24,6.99,10.77,15.4,12.51,25.81c2.26,13.54,7.39,43.69,10.02,59.08c0.35,2.06,1.94,3.57,3.97,4.04
		c29.25,6.74,50.49,20.16,52.11,21.2c10.57,6.84,13.6,20.95,6.77,31.52c-6.84,10.54-20.92,13.59-31.46,6.8
		c-0.93-0.59-52.41-32.58-92.81-9.15c-28.84,16.71-43.41,44.35-42.36,59.2c1.03,4.22,6.85,5.47,10.12,8.43
		c2.9,2.64,5.79,5.35,9.39,7.76c14.71,9.8,36.14,18.47,55.04,26.11l6.88,2.79c22.25,9.07,104.03,66.59,120.2,78.02
		c10.28,7.28,12.71,21.5,5.44,31.78c-4.44,6.28-11.48,9.63-18.63,9.63c-4.55,0-9.15-1.35-13.15-4.19
		c-38.42-27.19-98.29-67.82-111.06-73.02l-6.77-2.74c-20.93-8.46-44.65-18.05-63.24-30.45c-6.01-4.01-10.64-8.2-14.73-11.91
		c-9.76-8.86-15.66-14.37-40.53-13.76c-6.33,0.11-13.53-2.44-17.35-0.05c-6.92,5.28,0.09,51.8-5.49,70.06
		c-8.22,26.93-5.66,41.03,10.12,55.9c18.12,17.05,21.64,41.55,20.31,62.74c-0.18,2.94,1.96,5.31,4.9,5.46
		c9.8,0.5,20.28,2.52,31.53,6.71c11.8,4.4,17.8,17.52,13.4,29.32c-4.4,11.79-17.54,17.82-29.32,13.4
		c-30.58-11.41-49.12,2.55-73.94,25.11c-10.78,9.8-20.97,19.07-33.14,22.88c-17.93,5.61-31.84,1.29-43.02-2.16
		c-10.68-3.31-19.89-6.15-36.83-2.08c-9.17,2.2-15.89,9.07-20.81,16.97c15.72,10.45,32.32,19.61,49.62,27.54
		c11.51,3.64,26.08,5.83,44.08-1.71c22.67-12.98,50.87-29.12,78.07-41.79c33.37-15.53,73.91-41.23,102.05-60.05
		c27.09-18.11,63.18-14.4,85.78,8.86c27.13,27.86,26.26,49.68,20.74,63.08c-3.18,7.73-7.29,15.22-11.26,22.46
		c-1.84,3.35-3.18,6.05-4.68,8.93c22.81-10.62,44.32-23.45,64.35-38.25c1.44-1.07,2.25-2.81,2.14-4.6l-3.53-60.04
		c-0.1-1.66-0.85-3.1-2.26-4c-25.62-16.41-86.41-55.04-116.39-71.51c-14.64-8.04-35.93-14.94-38.08-9.7
		c-2.13,5.72,6.36,21.98,11.55,32.85c5.43,11.36,0.63,24.97-10.72,30.4c-3.18,1.52-6.53,2.24-9.82,2.24
		c-8.5,0-16.67-4.78-20.58-12.97c-5.9-12.33-19.84-47.61-18.09-70.99c0.05-0.71,0.02-1.26-0.23-1.93
		c-3.34-8.88-16.93-30.96-30.98-50.13c-7.44-10.15-5.24-24.42,4.92-31.86c10.15-7.44,24.41-5.24,31.86,4.91
		c16,21.83,25.73,37.75,31.64,49.57c0.94,1.88,2.75,2.9,4.84,2.76c17.12-1.09,40.51,1.09,65.63,14.89
		c29.58,16.25,85.31,51.52,113.61,69.6c2.04,1.3,4.56,1.08,6.29-0.62C756.48,676.18,772.68,655.21,765.96,634.4z"/>
</g>
</svg>
